<?xml version="1.0" encoding="iso-8859-1"?>
<!-- Generator: Adobe Illustrator 19.0.0, SVG Export Plug-In . SVG Version: 6.00 Build 0)  -->
<svg version="1.1" id="Layer_1" xmlns="http://www.w3.org/2000/svg" xmlns:xlink="http://www.w3.org/1999/xlink" x="0px" y="0px"
	 viewBox="0 0 512 512" style="enable-background:new 0 0 512 512;" xml:space="preserve">
<g transform="translate(0 1)">
	<path style="fill:#E2E3E5;" d="M512,255c0,131.531-106.814,238.345-238.345,238.345S35.31,386.531,35.31,255
		S142.124,16.655,273.655,16.655S512,123.469,512,255"/>
	<path style="fill:#CCCCCC;" d="M247.172,16.655c-50.317,0-96.221,15.007-134.179,41.49c0,12.359-5.297,22.069-15.89,30.014
		c-6.179,4.414-12.359,7.062-17.655,12.359c-6.179,5.297-10.593,11.476-16.772,15.89c-3.531,2.648-7.062,1.766-9.71,0
		C25.6,155.248,8.828,203.8,8.828,255c0,131.531,106.814,238.345,238.345,238.345S485.517,386.531,485.517,255
		S378.703,16.655,247.172,16.655"/>
	<path style="fill:#E2E3E5;" d="M220.69,16.655c-3.531,0-7.062,0-9.71,0c-7.945,15.89-25.6,20.303-42.372,21.186
		c-3.531,0-8.828,0-14.124,0c0,2.648-1.766,4.414-4.414,6.179c-12.359,7.062-23.834,15.007-35.31,22.952
		c0,2.648-1.766,6.179-5.297,8.828c-24.717,15.89-45.021,37.959-68.855,55.614c-8.828,15.89-14.124,37.959-19.421,52.083
		c-2.648,7.062-5.297,15.007-8.828,22.069c0.883,16.772-5.297,32.662-5.297,49.434c0,0.883,0,1.766-0.883,1.766
		c7.062,37.076,12.359,71.503,36.193,105.048c12.359,17.655,19.421,37.076,30.014,54.731c14.124,22.069,38.841,32.662,60.028,46.786
		c2.648,1.766,3.531,4.414,4.414,6.179c9.71,5.297,19.421,9.71,29.131,15.007c0,0,0.883,0,0.883,0.883
		c16.772,3.531,34.428,6.179,52.966,6.179c131.531,0,238.345-106.814,238.345-238.345S352.221,16.655,220.69,16.655"/>
	<path style="fill:#FFFFFF;" d="M251.586,493.345c4.414,0,8.828,0,13.241,0C139.476,486.283,35.31,390.945,35.31,263.828
		S135.062,32.545,260.414,25.483c-4.414,0-8.828,0-13.241,0c-131.531,0-238.345,106.814-238.345,238.345
		S120.055,493.345,251.586,493.345"/>
	<g>
		<path style="fill:#C24924;" d="M247.172,502.172C111.228,502.172,0,390.945,0,255c0-52.966,16.772-104.166,47.669-146.538
			c2.648-3.531,8.828-4.414,12.359-1.766s4.414,8.828,1.766,12.359C32.662,158.779,17.655,205.566,17.655,255
			c0,126.234,103.283,229.517,229.517,229.517c57.379,0,112.11-21.186,154.483-59.145c3.531-3.531,8.828-2.648,12.359,0.883
			c3.531,3.531,2.648,8.828-0.883,12.359C368.11,479.221,308.966,502.172,247.172,502.172z"/>
		<path style="fill:#C24924;" d="M451.09,387.414c-1.766,0-3.531,0-4.414-0.883c-4.414-2.648-5.297-7.945-2.648-12.359
			c21.186-36.193,32.662-76.8,32.662-119.172c0-126.234-103.283-229.517-229.517-229.517c-47.669,0-94.455,15.007-133.297,42.372
			c-4.414,2.648-9.71,1.766-12.359-1.766c-2.648-3.531-1.766-9.71,1.766-12.359c42.372-30.014,91.807-45.903,143.89-45.903
			c135.945,0,247.172,111.228,247.172,247.172c0,45.021-12.359,90.041-36.193,128C457.269,385.648,453.738,387.414,451.09,387.414z"
			/>
		<path style="fill:#C24924;" d="M361.931,157.897H132.414c-5.297,0-8.828-3.531-8.828-8.828s3.531-8.828,8.828-8.828h229.517
			c5.297,0,8.828,3.531,8.828,8.828S367.228,157.897,361.931,157.897z"/>
		<path style="fill:#C24924;" d="M397.241,299.138H97.103c-5.297,0-8.828-3.531-8.828-8.828c0-5.297,3.531-8.828,8.828-8.828
			h300.138c5.297,0,8.828,3.531,8.828,8.828C406.069,295.607,402.538,299.138,397.241,299.138z"/>
		<path style="fill:#C24924;" d="M397.241,228.517H97.103c-5.297,0-8.828-3.531-8.828-8.828s3.531-8.828,8.828-8.828h300.138
			c5.297,0,8.828,3.531,8.828,8.828S402.538,228.517,397.241,228.517z"/>
		<path style="fill:#C24924;" d="M361.931,369.759H132.414c-5.297,0-8.828-3.531-8.828-8.828s3.531-8.828,8.828-8.828h229.517
			c5.297,0,8.828,3.531,8.828,8.828S367.228,369.759,361.931,369.759z"/>
		<path style="fill:#C24924;" d="M88.276,87.276c0,5.297-3.531,8.828-8.828,8.828s-8.828-3.531-8.828-8.828s3.531-8.828,8.828-8.828
			S88.276,81.979,88.276,87.276"/>
		<path style="fill:#C24924;" d="M441.379,405.069c0,5.297-3.531,8.828-8.828,8.828s-8.828-3.531-8.828-8.828
			s3.531-8.828,8.828-8.828S441.379,399.772,441.379,405.069"/>
	</g>
</g>
<g>
</g>
<g>
</g>
<g>
</g>
<g>
</g>
<g>
</g>
<g>
</g>
<g>
</g>
<g>
</g>
<g>
</g>
<g>
</g>
<g>
</g>
<g>
</g>
<g>
</g>
<g>
</g>
<g>
</g>
</svg>
